PathFileType	4	(X/Y/Z)	C:\Users\u0145647\OneDrive - KU Leuven\KU Leuven\c3d2osim\CP4\T0\Data\Processed\ViconC3D_CP4_2\CP4_T0_09_gapFilled.trc
DataRate	CameraRate	NumFrames	NumMarkers	Units	OrigDataRate	OrigDataStartFrame	OrigNumFrames
100.000000	100.000000	9	47	mm	100.000000	316	631
Frame#	Time	C7			T10			CLAV			STRN			LSHO			RSHO			RBAK			LASI			RASI			LPSI			RPSI			LLAT			RLAT			LF1			LF2			LF3			LTHI			LKNE			LMEK			RF1			RF2			RF3			RTHI			RKNE			RMEK			LT1			LT2			LT3			LTIB			LANK			LMM			RT1			RT2			RT3			RTIB			RANK			RMM			LHEE			LSTL			LLCA			LTOE			LCM5			RHEE			RSTL			RLCA			RTOE			RCM5
		X1	Y1	Z1	X2	Y2	Z2	X3	Y3	Z3	X4	Y4	Z4	X5	Y5	Z5	X6	Y6	Z6	X7	Y7	Z7	X8	Y8	Z8	X9	Y9	Z9	X10	Y10	Z10	X11	Y11	Z11	X12	Y12	Z12	X13	Y13	Z13	X14	Y14	Z14	X15	Y15	Z15	X16	Y16	Z16	X17	Y17	Z17	X18	Y18	Z18	X19	Y19	Z19	X20	Y20	Z20	X21	Y21	Z21	X22	Y22	Z22	X23	Y23	Z23	X24	Y24	Z24	X25	Y25	Z25	X26	Y26	Z26	X27	Y27	Z27	X28	Y28	Z28	X29	Y29	Z29	X30	Y30	Z30	X31	Y31	Z31	X32	Y32	Z32	X33	Y33	Z33	X34	Y34	Z34	X35	Y35	Z35	X36	Y36	Z36	X37	Y37	Z37	X38	Y38	Z38	X39	Y39	Z39	X40	Y40	Z40	X41	Y41	Z41	X42	Y42	Z42	X43	Y43	Z43	X44	Y44	Z44	X45	Y45	Z45	X46	Y46	Z46	X47	Y47	Z47

316	3.15	700.46	1426.3	-110.86	691.75	1165.7	-136.44	820.69	1352.8	-90.484	859.44	1204.7	-83.348	813.23	1389.1	-311.91	716.79	1372.4	90.422	646.63	1336.3	2.8019	886.17	914.02	-159.21	795.53	904.43	18.19	706.58	956.54	-183.23	673.64	957.58	-115.95	859.81	982.53	-233.24	725.35	980.96	34.199	944.55	677.83	-224.16	920.01	715.6	-238.09	916.7	663.64	-237.8	960.94	592.78	-262.2	985.51	481.18	-170.97	NaN	NaN	NaN	697.04	622.83	31.864	721.46	653.84	33.537	660.53	661.21	24.22	696.76	560.81	70.974	699.47	434.85	1.8646	NaN	NaN	NaN	933.31	307.8	-200.08	974.35	345.01	-175.42	929.69	352.31	-201.06	990.85	235.37	-203	891.15	75.873	-174.97	896.34	84.736	-85.804	575.11	352.22	19.852	623.92	359.68	5.8083	594.5	401.69	19.291	529.51	297.23	61.344	375.47	199.53	5.8473	394.01	213.68	-77.605	836.76	59.318	-133.35	894.27	53.282	-89.937	894.34	47.235	-168.84	1015	46.333	-125.06	1003.4	38.396	-172.1	341.95	245.68	-25.883	364.49	196	-75.358	357.57	181.1	0.64187	400.96	80.684	-67.985	376.74	74.307	-16.324
317	3.16	712.43	1428.6	-110.84	704.13	1168.2	-137.09	832.61	1355.5	-90.095	871.53	1207.1	-82.852	825.84	1392	-311.46	728.39	1374.9	90.401	658.42	1338.7	2.6424	898.45	916.55	-159.66	807.15	906.2	17.533	718.66	958.92	-183.5	685.39	959.69	-116.23	871.52	985.09	-233.47	736.61	982.66	33.526	953.73	678.07	-223.63	929.94	716.54	-238.21	925.92	664.71	-238.07	969.11	593.32	-262.08	990.35	480.41	-170.78	NaN	NaN	NaN	714.42	624.06	32.47	737.66	655.55	33.798	676.96	661.63	24.867	715.96	562.53	72.131	720.22	436.35	4.1629	NaN	NaN	NaN	936.21	307.44	-200.48	977.28	344.24	-175.67	933.03	352.04	-201.48	993.42	234.41	-202.52	891.35	75.615	-175.13	896.72	84.756	-86.166	596.41	353.41	22.895	644.65	360.85	7.4178	615.92	402.89	22.671	551.31	297.43	64.265	395.23	201.46	8.9294	414.28	216.16	-74.352	837.12	59.522	-133.64	894.41	53.327	-90.286	894.57	47.147	-169.14	1015.3	46.089	-125.21	1003.6	37.878	-172.49	361.83	247.6	-22.714	384.88	198.34	-72.376	377.58	183.12	3.5977	424.74	83.656	-64.031	398.53	76.597	-13.57
318	3.17	724.3	1431.1	-110.73	716.31	1170.9	-137.5	844.29	1358.3	-89.582	883.25	1209.6	-82.207	838.38	1395.1	-310.88	739.77	1377.4	90.392	670	1341.5	2.3937	910.43	919.14	-160.36	818.93	908.18	16.96	730.5	961.49	-183.59	696.99	961.97	-116.48	883.09	987.88	-234	748.04	984.26	33.012	962.88	678.39	-223.9	939.51	717.17	-238.55	934.48	665.41	-238.24	976.03	592.81	-261.52	994.55	479.44	-171.17	NaN	NaN	NaN	731.95	625.68	33.511	754.69	657.44	34.34	693.5	662.61	25.812	735.33	564.61	73.674	741.19	438.13	6.7242	NaN	NaN	NaN	938.35	307.13	-201.24	980	343.79	-176.41	935.8	351.73	-202.19	995.02	233.29	-203.06	891.63	75.453	-175.52	897.09	84.905	-86.595	618.2	354.26	26.05	666.43	362.59	10.442	637.71	403.75	26.07	574.09	296.87	66.717	416.47	202.55	11.884	435.92	217.56	-71.473	837.23	59.704	-134.01	894.56	53.444	-90.684	894.64	47.043	-169.47	1015.4	45.966	-125.57	1003.8	37.391	-173.08	382.71	248.53	-19.971	406.61	199.58	-69.644	399.08	183.95	6.1463	450.42	85.583	-59.52	422.46	78.077	-10.235
319	3.18	736.03	1433.5	-110.65	728.33	1173.5	-137.7	855.86	1361	-89.083	894.84	1212.2	-81.58	850.95	1398.1	-310.21	750.96	1380	90.447	681.45	1344.3	2.2301	922.15	921.76	-160.92	830.27	909.98	15.797	742.1	964	-183.7	708.42	964.16	-116.61	894.34	990.77	-234.26	760.14	985.9	32.536	970.85	678.33	-224.38	949.83	718.19	-239.09	943.33	666.32	-239.17	982.75	592.83	-262.54	998.67	478.85	-172.32	NaN	NaN	NaN	749.7	627.84	34.842	771.43	660.05	35.16	710.19	663.99	26.967	754.37	567.29	75.636	762.44	440.33	9.6445	NaN	NaN	NaN	940.19	306.71	-202.17	982.14	343.03	-177.55	938.05	351.4	-203.35	996.1	232.62	-204.13	891.87	75.36	-175.93	897.3	85.109	-87.058	640.42	354.96	28.743	688.45	363.84	12.914	659.62	404.43	29.415	597.06	296.57	69.137	438.81	203.01	14.444	458.72	218.01	-68.825	837.3	59.881	-134.29	894.67	53.644	-91.189	894.78	46.928	-169.92	1015.5	45.858	-125.92	1003.9	37.009	-173.59	404.57	248.31	-17.826	429.68	199.56	-67.14	421.79	184.23	8.7735	477.22	86.798	-55.053	448.32	79.109	-6.2908
320	3.19	747.71	1436	-110.57	740.01	1176.1	-137.84	867.23	1363.6	-88.528	906.32	1214.6	-81.064	863.6	1401.3	-309.43	761.95	1382.4	90.429	692.67	1347.1	2.0502	933.79	924.34	-161.6	842.32	912.53	15.808	753.58	966.53	-183.91	719.84	966.42	-116.88	905.73	993.87	-234.63	771.86	987.84	32.301	980.13	678.93	-225.8	957.69	718.63	-239.95	950.63	666.82	-240.08	987.92	592.58	-263.61	1002.1	478.06	-173.76	NaN	NaN	NaN	767.3	630.34	36.382	788.66	662.71	36.465	726.97	665.71	28.31	773.2	570.11	77.915	783.87	442.57	12.504	NaN	NaN	NaN	941.55	306.21	-203.26	983.71	342.33	-179.02	939.77	350.96	-204.8	996.93	231.85	-205.5	891.88	75.203	-176.57	897.65	85.295	-87.483	662.91	355.89	31.407	710.81	365.22	15.535	681.74	405.21	32.203	619.94	297.34	71.697	462.33	203.02	16.998	482.66	217.47	-66.4	837.37	60.027	-134.58	894.77	53.804	-91.48	894.77	46.737	-170.24	1015.6	45.738	-126.34	1003.9	36.59	-174.15	427.39	247.3	-16.094	453.85	198.47	-64.77	446.02	183.6	11.207	505.07	87.504	-50.501	475.74	79.536	-1.9453
321	3.2	759.32	1438.6	-110.34	751.15	1178.7	-138.01	878.7	1366.2	-87.924	917.67	1217	-80.501	876.12	1404.3	-308.51	772.68	1385.1	90.487	703.82	1349.9	1.8326	945.06	926.76	-162.11	853.91	914.96	15.205	764.89	969.09	-184.19	731.11	968.77	-117.18	917.01	996.87	-234.62	783.36	990.09	31.984	986.47	678.73	-226.92	965.93	719.35	-241.12	956.96	667.64	-241.2	992.34	592.72	-265.44	1005	477.23	-175.83	NaN	NaN	NaN	785.02	633.21	38.071	805.17	666.15	37.946	743.83	667.58	29.713	791.97	573.57	80.227	805.35	445.46	15.67	NaN	NaN	NaN	942.72	305.98	-205.1	985.35	341.63	-180.87	941.16	350.41	-206.22	997.62	230.86	-207.37	891.97	74.876	-176.88	897.81	85.393	-88.04	685.56	357.15	34.042	733.64	366.95	18.492	703.87	406.79	34.864	643.05	298.35	74.224	487.26	202.25	19.179	507.45	216.41	-64.254	837.41	60.193	-134.88	894.84	54.072	-91.853	894.73	46.672	-170.57	1015.5	45.602	-126.75	1003.8	36.256	-174.72	451.34	245.75	-14.507	478.85	196.94	-62.537	471.12	182.83	13.727	533.76	87.322	-45.148	504.34	79.909	2.8858
322	3.21	770.93	1440.9	-110.17	762.67	1181.1	-138.03	889.87	1368.6	-87.257	928.89	1219.3	-79.948	888.58	1407.4	-307.62	783.3	1387.6	90.647	714.89	1352.5	1.6615	956.03	929.03	-162.61	865.55	917.45	14.694	776.06	971.36	-184.54	742.4	970.9	-117.39	928.39	999.79	-234.76	794.56	992.5	31.822	993.08	678.69	-228.59	973.69	720.02	-242.47	963.46	668.32	-242.88	996.52	592.82	-267.34	1007.4	476.22	-177.92	NaN	NaN	NaN	802.48	636.27	39.964	821.86	669.59	39.665	760.72	669.62	31.234	810.55	576.97	82.447	827.06	448.64	18.539	NaN	NaN	NaN	943.76	305.33	-206.39	986.74	341.07	-182.75	942.39	350.03	-207.85	998.17	230.18	-208.7	892	74.703	-177.4	898.5	85.49	-88.173	708.56	358.95	36.408	756.47	369.18	21.133	725.98	408.83	36.869	666.59	299.99	76.941	512.38	201.98	21.756	533.34	214.67	-61.874	837.47	60.429	-135.23	894.99	54.3	-92.138	894.7	46.572	-170.97	1015.6	45.469	-127.22	1003.8	35.971	-175.31	476.07	243.74	-13.167	504.92	194.66	-60.474	496.96	181.73	16.215	563.31	87.138	-39.673	533.75	80.175	8.1171
323	3.22	782.48	1443.2	-109.92	773.86	1183.4	-138.09	901.1	1370.8	-86.579	939.99	1221.4	-79.414	900.96	1410.2	-306.57	793.81	1389.9	90.765	725.93	1355	1.3923	966.78	931.13	-163.16	877.15	919.86	14.38	787.03	973.54	-184.77	753.44	973.05	-117.48	939.46	1002.5	-234.93	805.97	994.87	31.701	1000.1	678.88	-230.75	981.09	720.62	-243.97	969.31	668.86	-243.89	1000.5	593.05	-269.72	1009.9	475.68	-180.52	NaN	NaN	NaN	820.07	639.18	41.482	838.49	672.83	41.161	777.51	671.75	32.451	828.79	580.24	84.577	848.91	452.17	21.369	NaN	NaN	NaN	944.66	304.8	-207.84	988.01	340.39	-184.73	943.6	349.63	-209.61	998.74	229.45	-210.53	892.02	74.531	-177.86	898.51	85.843	-89.137	731.68	361.11	38.96	779.69	371.79	24.106	747.97	411.56	38.49	690.18	301.98	79.719	538.4	201.14	23.904	559.67	212.77	-60.05	837.52	60.699	-135.56	895.05	54.652	-92.824	894.68	46.486	-171.29	1015.7	45.434	-127.78	1003.9	35.579	-175.82	501.49	241.23	-12.215	532.04	191.86	-58.336	523.5	180.34	18.601	593.68	86.833	-33.827	563.76	80.281	13.795
324	3.23	794	1445.3	-109.52	784.46	1185.7	-138.37	912.36	1372.7	-85.874	951.04	1223.2	-78.964	913.35	1413	-305.58	804.26	1392.1	90.802	736.84	1357.3	1.1221	977.32	933.02	-163.88	888.83	922.04	13.853	797.67	975.52	-184.79	764.43	974.98	-117.33	950.39	1005	-234.82	817.37	997.33	31.519	1006.1	678.81	-232.28	989.34	721.4	-244.84	975	669.6	-246.03	1004.1	593.26	-271.61	1012.1	474.84	-182.89	NaN	NaN	NaN	837.42	642.13	43.022	854.42	676.26	43.128	794.4	673.23	33.893	846.86	583.3	86.416	870.97	455.83	23.906	NaN	NaN	NaN	945.63	304.5	-209.56	989.35	339.85	-186.75	944.84	349.24	-211.39	999.48	228.75	-211.93	892.14	74.538	-178.44	898.13	86.198	-90.063	754.98	363.3	41.422	803.03	374.59	27.026	770.13	414.3	39.947	713.81	303.98	82.569	564.92	199.95	25.945	587.05	210.32	-57.868	837.64	60.944	-135.95	895.29	54.921	-93.127	894.52	46.277	-171.71	1015.7	45.353	-128.43	1004	35.218	-176.51	527.63	238.37	-11.467	559.77	188.89	-56.358	550.83	178.66	20.664	624.51	86.31	-27.55	594.38	80.612	19.984
